<?xml version="1.0" encoding="UTF-8" standalone="no"?>
<!-- Created with Inkscape (http://www.inkscape.org/) -->

<svg
   width="200mm"
   height="200mm"
   viewBox="0 0 200 200"
   version="1.1"
   id="svg1"
   xml:space="preserve"
   xmlns="http://www.w3.org/2000/svg"
   xmlns:svg="http://www.w3.org/2000/svg"
   xmlns:rdf="http://www.w3.org/1999/02/22-rdf-syntax-ns#"
   xmlns:cc="http://creativecommons.org/ns#"
   xmlns:dc="http://purl.org/dc/elements/1.1/"><defs
     id="defs1" /><metadata
     id="metadata1"><rdf:RDF><cc:Work
         rdf:about=""><dc:format>image/svg+xml</dc:format><dc:type
           rdf:resource="http://purl.org/dc/dcmitype/StillImage" /></cc:Work></rdf:RDF></metadata><path
     id="path58"
     style="display:inline;stroke-width:1;stroke-linecap:round;stroke-linejoin:round;stroke-miterlimit:36.5;paint-order:stroke markers fill"
     d="m 43.583069,21.620074 -0.11068,0.149584 C 38.09506,18.910235 31.29438,20.29251 27.565471,25.334438 l -43.427479,58.71962 c -4.103727,5.548859 -2.929422,13.393881 2.619602,17.497632 L 295.58036,329.94851 c 5.5488,4.10393 13.39381,2.92933 17.49749,-2.61938 l 43.42746,-58.7196 c 3.89078,-5.26091 2.98683,-12.54706 -1.84097,-16.7907 l 0.062,-0.085 -3.60704,-2.66761 -8.92635,-6.60164 -0.60288,-0.44596 -12.3119,-9.10549 -0.60237,-0.44559 -12.31191,-9.10549 -0.60311,-0.44581 -12.31177,-9.10577 -0.60239,-0.44538 -12.03871,-8.90376 -0.60241,-0.44539 -12.77285,-9.44626 -3.60696,-2.66775 -10.09339,-7.46475 -0.60236,-0.44557 -12.31182,-9.10561 -0.60303,-0.44594 -12.31193,-9.10552 -0.60236,-0.44559 -12.31203,-9.10542 -0.60287,-0.44595 -12.03835,-8.90312 -0.60288,-0.44597 -11.60495,-8.58274 -3.60708,-2.66769 -11.76519,-8.70118 -0.60231,-0.44548 -12.31197,-9.10561 -0.60298,-0.44586 -12.31194,-9.10551 -0.60234,-0.44559 -12.3119,-9.105498 -0.60297,-0.445845 -12.03825,-8.903195 -0.60298,-0.44587 -9.9332,-7.346422 -3.60692,-2.667742 -10.1142,-7.480183 -0.60247,-0.445507 L 96.210566,60.542671 95.608216,60.097109 83.29628,50.991582 82.69341,50.545642 70.381428,41.440047 69.779029,40.994646 57.740199,32.090968 57.137804,31.645575 47.189418,24.28787 Z m 1.596242,5.386471 9.94842,7.357523 -19.449634,26.298562 0.602417,0.445393 19.449587,-26.298383 12.038869,8.903503 -19.449638,26.298553 0.602529,0.445326 19.449579,-26.298378 12.31182,9.105584 -19.449548,26.298464 0.602879,0.445936 19.449691,-26.298445 12.311934,9.105518 -19.449691,26.298469 0.602458,0.445498 19.449573,-26.298392 12.312474,9.105899 -19.449605,26.298374 0.602366,0.445589 19.449589,-26.298401 10.11419,7.480204 -22.788284,30.812809 3.60696,2.66775 22.788394,-30.812893 9.93327,7.346262 -19.44965,26.298531 0.603,0.4459 19.44959,-26.298414 12.0383,8.903055 -19.44964,26.298559 0.60299,0.44587 19.44967,-26.29848 12.31182,9.1056 -19.44957,26.29838 0.60235,0.44558 19.44958,-26.29839 12.31192,9.10552 -19.44959,26.29839 0.60288,0.44594 19.4497,-26.29845 12.31181,9.1056 -19.44963,26.29854 0.6024,0.44539 19.4497,-26.29845 11.76507,8.70124 -22.78829,30.81281 3.6071,2.66769 22.78826,-30.81281 11.60498,8.58278 -19.44948,26.29828 0.60297,0.44588 19.4496,-26.29837 12.03812,8.90326 -19.44947,26.2983 0.60287,0.44595 19.44959,-26.29836 12.31192,9.1055 -19.44968,26.29848 0.60235,0.44557 19.4498,-26.29853 12.31181,9.10555 -19.44946,26.29832 0.60281,0.44612 19.44959,-26.29839 12.31192,9.10552 -19.44958,26.29839 0.60233,0.44554 19.44971,-26.29844 10.09339,7.46473 -22.78849,30.81299 3.60718,2.66758 22.78828,-30.8128 12.7727,9.44628 -19.44954,26.29845 0.6024,0.44538 19.44948,-26.29829 12.03888,8.90352 -19.44955,26.29842 0.60241,0.44542 19.44947,-26.2983 12.31206,9.10546 -19.44966,26.29854 0.60301,0.44588 19.44958,-26.29839 12.3118,9.10558 -19.44957,26.2984 0.60235,0.44555 19.44969,-26.29844 12.31193,9.10551 -19.44959,26.29838 0.60299,0.44587 19.44957,-26.29839 8.92614,6.60182 -22.78827,30.81282 3.60703,2.66758 22.72633,-30.72899 c 3.37271,3.13672 3.94354,8.26132 1.13227,12.06248 l -43.42724,58.71946 c -3.02489,4.08991 -8.67856,4.93624 -12.76845,1.91154 L -11.231619,98.832813 c -4.090034,-3.024627 -4.936105,-8.678519 -1.911672,-12.768291 L 30.284067,27.345004 c 2.6491,-3.581935 7.314338,-4.674966 11.179726,-2.859475 l -22.679844,30.666136 3.606964,2.667764 z" /><path
     style="fill:#ffffff;fill-opacity:1;stroke:none;stroke-width:2.5;stroke-linecap:round;stroke-linejoin:round;stroke-miterlimit:36.5;stroke-dasharray:none;stroke-opacity:1;paint-order:stroke markers fill"
     d="m 153.32791,166.18786 c -1.01606,-1.00624 2.22647,-2.23186 1.28766,-3.59632 -0.38483,-0.55932 -1.18142,-0.8667 -1.86772,-0.84559 l -4.12601,0.127 0.13226,-2.58579 c 0.0704,-1.3759 5.33303,-2.31882 5.71664,-3.8096 0.22933,-0.89138 0.2823,-1.81964 0.0558,-2.78045 -0.42781,-1.81498 -0.59722,-1.95348 -2.13863,-2.68204 -0.68892,-0.32564 -0.79904,-0.77366 -1.66175,-0.77437 -0.53902,0 -1.88062,0.28949 -1.85563,0.082 l -0.9261,-0.42154 -0.006,-2.34638 c -0.006,-2.29379 1.98107,-4.40077 3.54144,-5.84539 0.95341,-0.8828 4.39343,-3.78813 4.78703,-3.68936 1.12899,0.28305 6.76192,9.08637 8.45317,12.52739 1.49055,3.03273 2.48683,6.14133 1.49385,8.24258 -0.56521,1.19627 -1.49715,2.57934 -2.75555,3.8293 -1.80868,1.79709 -7.33394,8.42614 -7.68089,7.13756 l -0.89386,-1.02703 z"
     id="path178" /><path
     style="fill:#ffffff;fill-opacity:1;stroke:none;stroke-width:2.5;stroke-linecap:round;stroke-linejoin:round;stroke-miterlimit:36.5;stroke-dasharray:none;stroke-opacity:1;paint-order:stroke markers fill"
     d="m 129.95121,219.98219 c -3.33975,-1.20735 -4.96347,-2.98621 -6.55635,-5.21056 -0.73072,-1.02057 -3.62237,-4.5346 -6.58045,-9.3544 -2.95812,-4.8198 -5.02138,-12.12877 -5.82166,-13.15077 -2.4676,-3.15081 -11.100333,-6.08799 -20.840733,-10.23469 C 81.443351,178.32451 75.79518,176.283 65.501503,174.19748 55.251927,172.12056 50.489167,172.50847 29.464259,172.15027 19.882986,171.98674 11.178825,171.11001 10.74,170.97475 c -0.7721905,-0.23868 -1.7895775,-2.16638 -1.1859665,-2.84414 0.343031,-0.38504 4.3362825,-3.22453 7.0190385,-5.53657 9.44175,-8.13774 13.379177,-13.72654 16.4673,-20.01028 2.764595,-5.62531 3.426679,-7.62886 3.40256,-16.13911 -0.01718,-6.03612 0.36432,-7.07637 -0.297726,-10.16814 -1.301301,-6.07692 -3.336002,-10.92391 -7.528143,-19.399797 -3.518752,-7.114295 -9.73851,-12.347405 -5.691437,-14.153445 0.429376,-0.191447 5.051074,-0.461259 7.348934,1.086414 1.189616,0.801214 6.039727,4.396471 10.159655,7.680048 17.040137,13.58054 24.057417,19.77159 31.622252,22.96213 7.486481,3.15727 14.385822,3.77848 22.31532,2.15244 1.5287,-0.31312 6.830853,-0.96153 10.700543,-2.36821 3.86968,-1.40669 8.89897,-3.58489 10.24879,-3.91303 3.50054,-0.8506 8.44837,0.30738 11.33567,1.66613 3.89302,1.83215 8.03657,7.1719 8.03657,9.59058 0,0.49346 -2.86305,3.58344 -3.88909,6.40324 -3.67663,10.10338 -4.09367,14.09799 -4.75181,22.9174 -1.04289,13.97525 1.86724,26.19311 7.43378,31.73827 1.04338,1.03953 5.57775,3.27855 7.63361,4.39146 6.50187,3.51975 8.47309,5.45246 10.43608,7.31933 5.25673,5.00016 4.11951,13.266 0.9172,19.53041 -1.15566,2.2605 -5.29399,5.52618 -8.02252,6.83804 -2.01461,0.96868 -4.70946,1.02452 -7.38972,1.12614 -2.63632,0.0998 -5.15087,-1.15261 -7.10968,-1.86187 z m -5.51595,-27.6327 c 2.76879,-1.68795 3.25717,-4.57182 0.57975,-6.67773 -1.92535,-1.51475 -3.5106,-1.06996 -4.69055,1.23456 -2.2722,4.43835 -0.0684,7.99136 4.1108,5.44317 z M 32.139751,163.4067 c 1.29271,-2.15206 2.184028,-0.38073 1.387252,-2.86776 -0.564784,-1.7631 -0.444118,-1.81212 -2.024538,-2.28591 -1.113609,-0.33351 -1.260398,-0.40972 -2.577729,0.22795 -3.639773,1.76203 -2.832979,4.10484 0.760419,5.66933 1.382925,0.60225 1.286808,1.20056 2.075173,-0.11201 z m 64.497416,-5.63174 c 0.85838,-1.71623 2.3094,-0.85167 3.31705,-2.77472 1.035323,-1.97603 0.407593,-4.09804 -0.62308,-6.04507 -2.59232,-4.8971 -5.654245,-5.67182 -9.70984,-2.20038 -2.876888,2.46233 -2.818794,4.56073 -1.220814,8.27514 1.743962,4.05402 5.739632,7.7373 7.730604,3.75665 z M 42.742489,105.33829 c 1.149431,-1.14939 0.616064,-1.31865 0.316476,-3.16478 -0.144748,-0.8921 -0.682981,-0.34245 -0.23929,-0.51636 0.437858,-0.17177 0.994557,-0.48416 -0.05142,-0.87028 -3.864895,-1.427437 -0.957626,-1.510457 -4.929908,0.8098 -2.135005,1.24673 -0.670099,0.39542 -0.09988,0.61872 0.374841,0.14636 0.02255,0.40364 0.453711,0.41724 0.591623,0.0178 0.02505,0.73859 0.02505,1.37877 0,2.34711 0.0696,1.49651 2.644825,1.49901 1.156051,0 1.038499,0.66953 1.880363,-0.17212 z"
     id="path177" /><path
     style="fill:#ffffff;fill-opacity:1;stroke:none;stroke-width:2.5;stroke-linecap:round;stroke-linejoin:round;stroke-miterlimit:36.5;stroke-dasharray:none;stroke-opacity:1;paint-order:stroke markers fill"
     d="m 174.50347,130.15429 c -3.33976,-1.20736 -4.96349,-2.98614 -6.55636,-5.21056 -0.73071,-1.02059 -3.62238,-4.5346 -6.58046,-9.35444 -2.95811,-4.8197 -5.02136,-12.12865 -5.82166,-13.15072 C 153.0774,99.287833 144.44468,96.350653 134.70427,92.203944 125.9956,88.496659 120.34743,86.455088 110.05376,84.369562 99.804177,82.292692 95.041417,82.680583 74.016503,82.322446 64.435234,82.158797 55.731075,81.282117 55.292262,81.14687 c -0.772199,-0.238713 -1.78959,-2.166405 -1.185978,-2.844132 0.343031,-0.385052 4.336282,-3.224587 7.019036,-5.536518 9.441748,-8.137744 13.379178,-13.726602 16.467299,-20.010365 2.76461,-5.625241 3.426684,-7.628806 3.402552,-16.139023 -0.01719,-6.036124 0.364337,-7.076453 -0.297715,-10.168224 -1.30131,-6.076834 -3.336,-10.923856 -7.528139,-19.399721 -3.518753,-7.11432054 -9.738516,-12.3474764 -5.691446,-14.1534443 0.429386,-0.1915124 5.051087,-0.4613314 7.348935,1.0863128 1.189616,0.8012101 6.039741,4.3965108 10.159665,7.6800639 17.040139,13.5805356 24.057419,19.7716526 31.622239,22.9621566 7.48648,3.157231 14.38583,3.778426 22.31532,2.152473 1.52872,-0.313099 6.83085,-0.961614 10.70055,-2.368194 3.86968,-1.406716 8.89896,-3.584887 10.24878,-3.913135 3.50056,-0.850574 8.44839,0.307419 11.33568,1.666123 3.89302,1.832206 8.03658,7.171936 8.03658,9.590578 0,0.493521 -2.86305,3.583535 -3.88909,6.403322 -3.67664,10.103306 -4.09367,14.097995 -4.75181,22.917389 -1.04291,13.975188 1.86723,26.193098 7.43378,31.738271 1.04335,1.03952 5.57774,3.27855 7.63359,4.39151 6.50188,3.519687 8.47311,5.452387 10.4361,7.319217 5.25673,5.00026 4.1195,13.26608 0.91719,19.5305 -1.15565,2.26054 -5.29398,5.5261 -8.0225,6.838 -2.01463,0.96866 -4.7095,1.02452 -7.38973,1.12609 -2.63632,0.1001 -5.15089,-1.15259 -7.10968,-1.86183 z m -5.51596,-27.63268 c 2.76879,-1.68789 3.25716,-4.571787 0.57976,-6.677737 -1.92536,-1.51477 -3.5106,-1.06994 -4.69056,1.23455 -2.27219,4.438297 -0.0684,7.991397 4.1108,5.443187 z M 76.692001,73.578791 c 1.292715,-2.152068 2.18403,-0.380724 1.387253,-2.867667 -0.564783,-1.763094 -0.444113,-1.812189 -2.024545,-2.285963 -1.113602,-0.333522 -1.260393,-0.409667 -2.577723,0.227893 -3.63977,1.762013 -2.832972,4.104916 0.760422,5.669331 1.382929,0.60226 1.286806,1.200597 2.075168,-0.112256 z M 141.1894,67.947059 c 0.8584,-1.716163 2.30942,-0.851658 3.31707,-2.77475 1.03531,-1.975976 0.40759,-4.098019 -0.62307,-6.04505 -2.59232,-4.897064 -5.65427,-5.671765 -9.70985,-2.200353 -2.87688,2.462328 -2.81881,4.560703 -1.22083,8.275158 1.74397,4.054061 5.73966,7.737273 7.73062,3.756651 z M 87.294734,15.510416 c 1.14944,-1.149339 0.616069,-1.31867 0.316488,-3.164806 -0.144746,-0.892097 -0.682982,-0.342448 -0.239296,-0.516378 0.437867,-0.171765 0.994561,-0.484188 -0.05134,-0.870186 -3.864888,-1.427544 -0.957622,-1.51045 -4.929901,0.809731 -2.135015,1.246717 -0.670096,0.395465 -0.09987,0.61876 0.37484,0.146339 0.02258,0.403581 0.453718,0.41724 0.591623,0.01758 0.02505,0.738591 0.02505,1.37872 0,2.347096 0.06965,1.49652 2.644827,1.49909 1.156058,0 1.0385,0.669479 1.880361,-0.172171 z"
     id="path177-9" /><path
     id="path2"
     style="display:inline;opacity:1;fill:#000000;fill-opacity:1;stroke:#000000;stroke-width:2.98201;stroke-dasharray:none;stroke-opacity:1"
     d="m 68.45988,-9.6635617 c -0.533594,-0.01987 -0.878694,0.06255 -1.175779,0.242489 0,0 -0.827516,0.857311 -1.253899,3.4865177 -0.4855,2.9610215 -0.468513,3.0810211 0.625428,5.81563936 0.616934,1.53601614 2.427974,5.32154264 4.025312,8.41214164 4.075233,7.885158 4.820488,9.555028 6.092812,13.659568 2.853734,9.204099 3.248606,20.961344 0.896563,26.690784 -2.639525,6.428326 -8.893618,13.968857 -17.385104,20.959796 -7.475826,6.152072 -7.834149,6.572491 -8.507468,9.888186 -0.61044,3.006051 -0.15362,3.403963 4.844882,4.221448 3.860873,0.631813 6.92335,0.747435 20.447843,0.770264 17.865297,0.03039 28.10918,0.970925 38.45365,3.530058 12.23703,3.026974 27.63435,9.691683 34.23207,14.81643 2.25402,1.75075 2.80353,2.4621 6.4835,8.38762 2.21223,3.56135 4.56045,7.47539 5.2187,8.69794 4.62556,8.5884 8.42156,11.81247 16.36842,13.9063 4.71698,1.2425 6.87769,1.32258 10.57016,0.38866 4.40564,-1.11403 8.76015,-4.68482 10.80638,-8.85948 1.10888,-2.28354 2.42256,-8.95623 2.29744,-11.72075 -0.25789,-5.68275 -2.90945,-10.73415 -7.49966,-14.287247 -0.86842,-0.67227 -3.65119,-2.26719 -6.18404,-3.54495 -2.53287,-1.27776 -5.33572,-2.879671 -6.22758,-3.558728 -3.48568,-2.65454 -5.36427,-6.209318 -7.11065,-13.457612 -1.2828,-5.323747 -1.728,-10.018877 -1.50527,-15.873098 0.3519,-9.255794 1.24462,-13.484885 4.74029,-22.446981 1.70888,-4.382816 3.06353,-10.564946 2.71486,-12.432241 -0.2804,-1.511066 -2.60145,-4.512134 -4.78696,-6.188861 -5.29141,-4.059093 -13.63397,-5.283676 -20.51239,-3.010244 -1.1357,0.375005 -3.89926,1.394146 -6.14198,2.263778 -10.06287,3.902881 -14.78553,4.753301 -22.47757,4.047999 -8.61203,-0.789542 -19.24475,-7.366803 -42.749182,-26.443433 -7.418131,-6.0212407 -9.335622,-7.2012107 -12.975358,-7.9892637 -1.062441,-0.230034 -1.788485,-0.353067 -2.323824,-0.372468 z m 1.152409,1.827633 c 1.568512,-0.184785 5.469385,2.2661967 11.758858,7.38963146 C 97.514977,12.704562 105.77937,18.611138 114.03503,22.898927 c 8.42852,4.377483 18.76618,5.516049 27.76153,3.057686 1.54047,-0.421449 5.27071,-1.720413 8.28923,-2.88719 9.4605,-3.657433 13.16052,-4.257831 17.90926,-2.906835 4.42739,1.259221 8.84888,4.926276 10.34086,8.576442 0.72027,1.747993 0.40964,4.01085 -1.02051,7.632153 -4.26617,10.768732 -5.88723,18.054955 -6.21934,27.938241 -0.43668,13.01329 2.94746,24.876027 8.25038,28.919079 0.87594,0.66792 3.79931,2.34837 6.49631,3.73427 5.91896,3.041987 8.22496,4.862567 10.58481,8.356897 5.44527,8.06274 3.86259,18.76459 -3.56239,24.08387 -7.064,5.06084 -14.66629,4.6305 -22.40688,-1.26915 -2.42956,-1.85161 -2.83692,-2.4443 -11.68046,-17.00117 -3.2922,-5.41985 -5.00348,-7.88816 -6.08163,-8.77409 -3.49882,-2.874917 -9.8271,-6.312487 -17.97521,-9.76538 -7.75981,-3.28786 -12.37304,-4.727718 -21.5665,-6.73531 -12.82046,-2.801423 -18.852193,-3.247347 -44.668507,-3.326832 -12.832124,-0.03947 -15.470001,-0.547571 -14.99459,-2.888683 0.287535,-1.415941 1.779439,-2.94229 7.65861,-7.834185 8.841137,-7.35652 14.792192,-14.406758 17.413079,-20.629114 2.020422,-4.797042 2.777114,-9.969165 2.450177,-16.660061 -0.42206,-8.536004 -2.451615,-15.81136 -6.72716,-24.115329 -3.988334,-7.7470262 -5.740973,-11.4251065 -6.31176,-13.2534682 l 0.0054,7.022e-4 c -0.938067,-2.9890258 -0.359084,-4.7526637 1.633149,-4.9874807 z M 85.552985,10.929994 c -0.502836,-0.04909 -1.032725,0.03091 -1.414577,0.261671 0,0 -1.314397,2.277404 -0.748288,3.277598 0.43144,0.767263 1.803325,1.26158 2.620324,0.94483 1.224702,-0.475301 1.743154,-3.012067 0.807147,-3.954335 -0.294997,-0.298737 -0.781228,-0.482585 -1.286109,-0.533823 z m 53.654965,45.141443 c -2.1067,-0.223826 -4.24165,0.746347 -5.664,2.822223 0,0 -1.25781,2.854016 -0.85315,4.730702 0.89487,4.13862 4.48207,6.122079 8.31737,4.598957 3.97994,-1.579603 4.99003,-7.449792 1.79756,-10.440372 -1.08207,-1.013179 -2.33553,-1.577428 -3.59857,-1.711681 z m -0.31546,1.96076 c 0.27263,-0.0392 0.52094,-0.04009 0.74279,0.008 0.95231,0.206189 2.89465,2.831983 3.15813,4.263457 0.1739,0.976514 0.0725,1.272509 -0.78783,2.291064 -1.18986,1.403511 -3.1517,2.315509 -4.40114,2.044991 -0.6259,-0.135515 -1.26707,-0.762002 -2.05171,-2.001593 l 0.002,5.97e-4 c -0.62808,-0.992347 -1.15536,-2.147088 -1.17745,-2.567795 -0.0683,-1.496242 2.62687,-3.759165 4.51094,-4.039693 z M 75.616955,68.762639 c -0.447371,-0.03709 -0.937299,0.08232 -1.431675,0.415116 l -1.46e-4,7.37e-4 c -1.101324,0.743452 -1.544235,2.936759 -0.804754,3.98739 0.774825,1.100641 2.475826,1.387544 3.434111,0.5787 2.001009,-1.683269 0.754996,-4.817628 -1.19757,-4.98178 z m -0.104594,2.510821 c 0.182236,0.03946 0.301041,0.228299 0.262327,0.418913 -0.03865,0.190614 -0.220804,0.313457 -0.403039,0.274004 -0.182214,-0.03946 -0.301188,-0.227483 -0.262473,-0.418096 0.03865,-0.190615 0.220961,-0.314276 0.403185,-0.274821 z m -51.794193,8.839797 c -0.53359,-0.01989 -0.878692,0.06255 -1.175774,0.242487 l 0.0051,1.645143 c -0.636985,0.407825 -0.835622,-0.789009 -1.262079,1.840526 -0.485498,2.961021 -0.468528,3.081102 0.625436,5.815639 0.616931,1.536016 2.427958,5.321621 4.025286,8.412221 4.075265,7.885077 4.820511,9.554947 6.092835,13.659487 2.853747,9.2041 3.248611,20.96134 0.896568,26.69078 -2.63954,6.42833 -8.893608,13.96879 -17.38511,20.9598 -7.4758245,6.15207 -7.8342636,6.57306 -8.5076006,9.88884 -0.610439,3.00605 -0.153486,3.4033 4.8450126,4.22079 3.860872,0.63181 6.923359,0.74744 20.447842,0.77027 17.865284,0.0304 28.109205,0.97084 38.454469,3.53014 12.236237,3.02681 27.633514,9.69168 34.231247,14.81643 2.25403,1.75075 2.80432,2.4621 6.48432,8.38763 2.21142,3.56116 4.5596,7.47538 5.21786,8.69793 4.62558,8.58841 8.42159,11.8124 16.36843,13.90623 4.71779,1.24265 6.8777,1.32256 10.57018,0.38874 4.40564,-1.11405 8.76015,-4.68482 10.80636,-8.85948 1.10887,-2.28348 2.42259,-8.95633 2.29746,-11.72083 -0.25788,-5.68277 -2.90866,-10.73399 -7.49965,-14.28725 -0.86843,-0.67228 -3.65121,-2.26711 -6.18408,-3.54489 -2.53287,-1.27775 -5.3357,-2.87975 -6.22755,-3.5588 -3.48567,-2.65462 -5.3643,-6.20915 -7.11067,-13.45753 -1.28281,-5.32367 -1.72798,-10.01897 -1.50526,-15.87318 0.35193,-9.25588 1.2454,-13.48463 4.7403,-22.44699 1.70885,-4.38272 3.06348,-10.56477 2.71485,-12.43214 -0.28042,-1.51099 -2.6021,-4.51297 -4.78765,-6.18961 -5.29141,-4.05909 -13.63408,-5.28312 -20.51253,-3.00959 -1.13569,0.375 -3.89924,1.39405 -6.14197,2.26377 -10.06287,3.9029 -14.785539,4.75339 -22.477557,4.04808 -8.61206,-0.78962 -19.244754,-7.36697 -42.74838,-26.443418 -7.418118,-6.021323 -9.336476,-7.201138 -12.976211,-7.989189 -1.062448,-0.230035 -1.788483,-0.353069 -2.323823,-0.372469 z m 1.152374,1.827795 c 1.568514,-0.184785 5.469406,2.266115 11.758897,7.389468 16.143816,13.15094 24.408264,19.05726 32.664714,23.34522 8.42773,4.37732 18.76535,5.51606 27.760714,3.0577 1.54047,-0.42145 5.270693,-1.72041 8.289213,-2.8872 9.4605,-3.65743 13.16065,-4.25849 17.90938,-2.90748 4.42742,1.25921 8.84877,4.92692 10.34075,8.5771 0.72028,1.74798 0.40976,4.01018 -1.02038,7.63149 -4.26619,10.76872 -5.88741,18.05577 -6.2195,27.93906 -0.43669,13.01328 2.94761,24.87521 8.25055,28.91826 0.87591,0.66792 3.79929,2.34836 6.4963,3.73426 5.91895,3.042 8.22496,4.86258 10.58479,8.3569 5.4453,8.06264 3.86244,18.76541 -3.56254,24.08468 -7.064,5.06086 -14.66626,4.63035 -22.40685,-1.2693 -2.42957,-1.85162 -2.8369,-2.44431 -11.68046,-17.00117 -3.2922,-5.41984 -5.00348,-7.88818 -6.08161,-8.77409 -3.49884,-2.87492 -9.826983,-6.31307 -17.975134,-9.76588 -7.759784,-3.28794 -12.373141,-4.72714 -21.566607,-6.73473 -12.819661,-2.80126 -18.851413,-3.24717 -44.6685,-3.32691 -12.832134,-0.0393 -15.4699945,-0.54758 -14.9945845,-2.88869 0.28752,-1.41586 1.7794395,-2.94229 7.6586055,-7.83418 8.841154,-7.35653 14.792205,-14.40676 17.413061,-20.62904 2.020438,-4.79704 2.777133,-9.96925 2.450179,-16.66006 -0.422006,-8.536 -2.451548,-15.81144 -6.7271,-24.11541 C 25.5561,92.434026 23.804377,88.755545 23.232804,86.926931 l 0.0048,7.02e-4 c -0.938068,-2.989027 -0.359252,-4.751847 1.63298,-4.986663 z M 168.27199,96.418973 c -0.41199,-0.0892 -1.21425,0.0736 -1.7778,0.36409 -0.78491,0.40312 -1.09165,0.83428 -1.29448,1.83316 -0.33628,1.655967 0.40314,2.792417 2.04871,3.148707 1.4784,0.32009 2.67824,-0.56226 3.01427,-2.216997 0.26455,-1.3028 -0.72304,-2.85458 -1.99069,-3.12904 z m -0.63476,2.22974 c 0.19717,-0.0342 0.39652,0.0431 0.47649,0.26032 0.1836,0.52143 -0.34484,1.08719 -0.6969,0.74364 l -0.002,-10e-4 c -0.14411,-0.14565 -0.24053,-0.40395 -0.20648,-0.57166 0.0493,-0.24297 0.23709,-0.39363 0.43477,-0.43026 z M 40.808944,100.70629 c -0.502843,-0.0491 -1.03256,0.0301 -1.414403,0.26086 l 0.27307,-0.12279 c -0.929388,0.54436 -1.567731,2.40481 -1.005587,3.40414 0.431445,0.76726 1.803295,1.26175 2.620325,0.94483 1.224704,-0.4753 1.743205,-3.01231 0.807987,-3.95441 -0.294996,-0.29873 -0.781225,-0.48258 -1.286905,-0.53399 z m 53.655113,45.1408 c -2.10591,-0.22366 -4.24179,0.74701 -5.66414,2.82287 0,0 -1.25781,2.85401 -0.853152,4.73071 0.894877,4.13853 4.482058,6.12215 8.317362,4.59895 3.979933,-1.57961 4.990043,-7.44987 1.79757,-10.44038 -1.08207,-1.01317 -2.33541,-1.57808 -3.59844,-1.71233 z m -0.315606,1.9614 c 0.272626,-0.0392 0.520946,-0.04 0.750706,0.009 0.95154,0.20602 2.89382,2.83206 3.15731,4.26346 0.17389,0.9766 0.0727,1.27177 -0.78766,2.29033 -1.1891,1.40368 -3.151723,2.3155 -4.401162,2.04499 -0.6259,-0.13552 -1.267235,-0.76119 -2.051845,-2.00094 l 0.0022,6e-4 c -0.627282,-0.99217 -1.155362,-2.14709 -1.177449,-2.56781 -0.06842,-1.49623 2.626863,-3.75916 4.510932,-4.03968 z m -63.274709,10.73045 c -0.447382,-0.0371 -0.938087,0.0821 -1.431668,0.41512 -1.10212,0.74329 -1.545201,2.93741 -0.805717,3.98804 0.774805,1.10073 2.475832,1.38753 3.434116,0.5787 2.001806,-1.6831 0.755063,-4.81796 -1.196714,-4.98194 z m -0.104627,2.51099 c 0.182225,0.0395 0.301194,0.22748 0.262485,0.4181 -0.03855,0.18979 -0.220805,0.31345 -0.403029,0.27399 -0.182225,-0.0395 -0.301194,-0.22748 -0.262487,-0.41809 0.03871,-0.19062 0.220806,-0.31345 0.403031,-0.274 z m 92.759585,25.14551 c -0.412,-0.0891 -1.21445,0.0744 -1.7778,0.36409 -0.78492,0.40312 -1.09168,0.83436 -1.29452,1.83325 -0.33628,1.65596 0.40317,2.79233 2.04874,3.14862 1.47839,0.32009 2.67837,-0.56299 3.01439,-2.21764 0.26456,-1.3028 -0.72236,-2.85376 -1.9908,-3.12839 z m -0.63464,2.2291 c 0.19718,-0.0343 0.39653,0.0431 0.47632,0.26112 0.18361,0.52144 -0.3447,1.08654 -0.69677,0.743 l -0.002,-6.1e-4 c -0.14412,-0.14565 -0.24054,-0.40395 -0.20648,-0.57166 0.0492,-0.24216 0.23725,-0.39444 0.43493,-0.43107 z" /><path
     style="display:inline;opacity:1;fill:#000000;stroke:#000000;stroke-width:2.5;stroke-dasharray:none;stroke-opacity:1"
     d="m 168.72818,158.09934 c -1.10074,3.39785 -4.14015,6.71751 -8.99037,9.81957 -2.43796,1.55914 -3.36273,1.91064 -5.01601,1.90645 -1.19381,0 -1.62529,-0.096 -2.46669,-0.53045 -2.01448,-1.04059 -3.80082,-3.11097 -5.40893,-6.26874 -1.59807,-3.13816 -2.10437,-5.04921 -2.34289,-8.84388 -0.18734,-2.98086 -0.007,-4.93655 0.67336,-7.31706 1.81864,-6.35977 6.54801,-11.4593 10.62768,-11.4593 0.8725,0 2.50441,0.94349 3.7272,2.15505 2.34188,2.32018 6.93482,8.83873 8.2955,11.77348 1.45001,3.12734 1.75777,6.12065 0.90115,8.76488 z m -2.36765,-6.24805 c -0.58719,-1.88724 -2.07078,-4.46427 -4.42986,-7.69467 -3.53223,-4.83688 -5.14237,-6.43564 -6.48135,-6.43564 -2.15921,0 -5.80749,3.80168 -7.3931,7.70387 -1.05023,2.58459 -1.31959,4.1068 -1.28702,7.27324 0.0337,3.26961 0.34153,5.13956 1.22332,7.42944 1.20321,3.1245 3.58351,6.33665 5.28238,7.12839 1.40793,0.65622 2.36617,0.46215 4.72661,-0.95701 3.68764,-2.217 6.8095,-5.17799 7.98183,-7.57025 1.14707,-2.34074 1.24322,-4.0941 0.37719,-6.87737 z m -12.31949,12.44243 c -0.35441,0.50609 -1.43648,0.74886 -1.99783,0.44848 -0.58268,-0.31188 -1.04382,-1.30136 -0.89187,-1.91376 0.341,-1.37454 1.984,-1.88753 2.78478,-0.86951 0.4763,0.6055 0.52693,1.73239 0.10493,2.33479 z m -0.70828,-1.83992 c -0.77244,-0.77254 -1.84827,0.27658 -1.23832,1.20749 0.54398,0.83016 1.46984,0.5314 1.46984,-0.47445 0,-0.2759 -0.10415,-0.60577 -0.23152,-0.73304 z m 0.75035,-7.16721 c -0.56696,2.01778 -1.80078,3.15142 -3.42993,3.15142 -3.49149,0 -4.8796,-5.8231 -1.99238,-8.35819 1.27641,-1.12067 2.93608,-1.02532 4.20091,0.24141 1.18584,1.18748 1.69794,3.26935 1.2214,4.96536 z m -1.68487,-2.36683 c -0.28467,-1.02506 -1.0653,-1.88699 -1.70888,-1.88699 -1.22535,0 -2.22031,2.14017 -1.76984,3.8071 0.6322,2.33939 2.60894,2.52752 3.39446,0.32311 0.32735,-0.9186 0.34222,-1.31448 0.0843,-2.24322 z"
     id="path7" /></svg>
